<?xml version="1.0" encoding="UTF-8"?>
<svg id="Layer_2" data-name="Layer 2" xmlns="http://www.w3.org/2000/svg" xmlns:xlink="http://www.w3.org/1999/xlink" version="1.1" viewBox="0 0 300 300">
  <defs>
    <style>
      .cls-1 {
        fill: url(#linear-gradient);
      }

      .cls-1, .cls-2, .cls-3, .cls-4, .cls-5, .cls-6, .cls-7, .cls-8, .cls-9, .cls-10, .cls-11, .cls-12, .cls-13, .cls-14, .cls-15, .cls-16, .cls-17, .cls-18, .cls-19, .cls-20, .cls-21, .cls-22, .cls-23, .cls-24, .cls-25 {
        stroke-width: 0px;
      }

      .cls-2 {
        fill: url(#linear-gradient-11);
      }

      .cls-3 {
        fill: url(#linear-gradient-12);
      }

      .cls-4 {
        fill: url(#linear-gradient-13);
      }

      .cls-5 {
        fill: url(#linear-gradient-10);
      }

      .cls-6 {
        fill: url(#linear-gradient-17);
      }

      .cls-7 {
        fill: url(#linear-gradient-16);
      }

      .cls-8 {
        fill: url(#linear-gradient-19);
      }

      .cls-9 {
        fill: url(#linear-gradient-15);
      }

      .cls-10 {
        fill: url(#linear-gradient-23);
      }

      .cls-11 {
        fill: url(#linear-gradient-21);
      }

      .cls-12 {
        fill: url(#linear-gradient-18);
      }

      .cls-13 {
        fill: url(#linear-gradient-14);
      }

      .cls-14 {
        fill: url(#linear-gradient-22);
      }

      .cls-15 {
        fill: url(#linear-gradient-20);
      }

      .cls-16 {
        fill: #303434;
      }

      .cls-17 {
        fill: url(#linear-gradient-4);
      }

      .cls-18 {
        fill: url(#linear-gradient-2);
      }

      .cls-19 {
        fill: url(#linear-gradient-3);
      }

      .cls-20 {
        fill: url(#linear-gradient-8);
      }

      .cls-21 {
        fill: url(#linear-gradient-9);
      }

      .cls-22 {
        fill: url(#linear-gradient-7);
      }

      .cls-23 {
        fill: url(#linear-gradient-5);
      }

      .cls-24 {
        fill: url(#linear-gradient-6);
      }

      .cls-26 {
        isolation: isolate;
      }

      .cls-25 {
        fill: #fff;
      }
    </style>
    <linearGradient id="linear-gradient" x1="268.8" y1="415.6" x2="281.2" y2="415.6" gradientTransform="translate(0 -294)" gradientUnits="userSpaceOnUse">
      <stop offset="0" stop-color="#a0a1a5"/>
      <stop offset=".5" stop-color="#f9f9f9"/>
      <stop offset="1" stop-color="#8a8c91"/>
    </linearGradient>
    <linearGradient id="linear-gradient-2" x1="70.4" y1="532.6" x2="82.8" y2="532.6" gradientTransform="translate(0 -294)" gradientUnits="userSpaceOnUse">
      <stop offset="0" stop-color="#a0a1a5"/>
      <stop offset=".5" stop-color="#f9f9f9"/>
      <stop offset="1" stop-color="#8a8c91"/>
    </linearGradient>
    <linearGradient id="linear-gradient-3" x1="116.8" y1="527.4" x2="128.4" y2="527.4" gradientTransform="translate(0 -294)" gradientUnits="userSpaceOnUse">
      <stop offset="0" stop-color="#a0a1a5"/>
      <stop offset=".5" stop-color="#f9f9f9"/>
      <stop offset="1" stop-color="#8a8c91"/>
    </linearGradient>
    <linearGradient id="linear-gradient-4" x1="49.1" y1="421.7" x2="87.5" y2="421.7" gradientTransform="translate(0 -294)" gradientUnits="userSpaceOnUse">
      <stop offset="0" stop-color="#a0a1a5"/>
      <stop offset=".5" stop-color="#f9f9f9"/>
      <stop offset="1" stop-color="#8a8c91"/>
    </linearGradient>
    <linearGradient id="linear-gradient-5" x1="97.9" y1="335.8" x2="206.5" y2="335.8" gradientTransform="translate(0 -294)" gradientUnits="userSpaceOnUse">
      <stop offset="0" stop-color="#a0a1a5"/>
      <stop offset=".5" stop-color="#f9f9f9"/>
      <stop offset="1" stop-color="#8a8c91"/>
    </linearGradient>
    <linearGradient id="linear-gradient-6" x1="185.7" y1="437.8" x2="255.2" y2="437.8" gradientTransform="translate(0 -294)" gradientUnits="userSpaceOnUse">
      <stop offset="0" stop-color="#a0a1a5"/>
      <stop offset=".5" stop-color="#f9f9f9"/>
      <stop offset="1" stop-color="#8a8c91"/>
    </linearGradient>
    <linearGradient id="linear-gradient-7" x1="82.5" y1="438.9" x2="100.4" y2="438.9" gradientTransform="translate(0 -294)" gradientUnits="userSpaceOnUse">
      <stop offset="0" stop-color="#a0a1a5"/>
      <stop offset=".5" stop-color="#f9f9f9"/>
      <stop offset="1" stop-color="#8a8c91"/>
    </linearGradient>
    <linearGradient id="linear-gradient-8" x1="177.8" y1="450.4" x2="221.7" y2="450.4" gradientTransform="translate(0 -294)" gradientUnits="userSpaceOnUse">
      <stop offset="0" stop-color="#a0a1a5"/>
      <stop offset=".5" stop-color="#f9f9f9"/>
      <stop offset="1" stop-color="#8a8c91"/>
    </linearGradient>
    <linearGradient id="linear-gradient-9" x1="177.6" y1="526.1" x2="190.9" y2="526.1" gradientTransform="translate(0 -294)" gradientUnits="userSpaceOnUse">
      <stop offset="0" stop-color="#a0a1a5"/>
      <stop offset=".5" stop-color="#f9f9f9"/>
      <stop offset="1" stop-color="#8a8c91"/>
    </linearGradient>
    <linearGradient id="linear-gradient-10" x1="167.2" y1="517.5" x2="174.6" y2="517.5" gradientTransform="translate(0 -294)" gradientUnits="userSpaceOnUse">
      <stop offset="0" stop-color="#a0a1a5"/>
      <stop offset=".5" stop-color="#f9f9f9"/>
      <stop offset="1" stop-color="#8a8c91"/>
    </linearGradient>
    <linearGradient id="linear-gradient-11" x1="132.6" y1="518.2" x2="139" y2="518.2" gradientTransform="translate(0 -294)" gradientUnits="userSpaceOnUse">
      <stop offset="0" stop-color="#a0a1a5"/>
      <stop offset=".5" stop-color="#f9f9f9"/>
      <stop offset="1" stop-color="#8a8c91"/>
    </linearGradient>
    <linearGradient id="linear-gradient-12" x1="71.8" y1="498.7" x2="128.6" y2="498.7" gradientTransform="translate(0 -294)" gradientUnits="userSpaceOnUse">
      <stop offset="0" stop-color="#a0a1a5"/>
      <stop offset=".5" stop-color="#f9f9f9"/>
      <stop offset="1" stop-color="#8a8c91"/>
    </linearGradient>
    <linearGradient id="linear-gradient-13" x1="141.8" y1="519.6" x2="163.9" y2="519.6" gradientTransform="translate(0 -294)" gradientUnits="userSpaceOnUse">
      <stop offset="0" stop-color="#a0a1a5"/>
      <stop offset=".5" stop-color="#f9f9f9"/>
      <stop offset="1" stop-color="#8a8c91"/>
    </linearGradient>
    <linearGradient id="linear-gradient-14" x1="119.9" y1="511.9" x2="128.3" y2="511.9" gradientTransform="translate(0 -294)" gradientUnits="userSpaceOnUse">
      <stop offset="0" stop-color="#a0a1a5"/>
      <stop offset=".5" stop-color="#f9f9f9"/>
      <stop offset="1" stop-color="#8a8c91"/>
    </linearGradient>
    <linearGradient id="linear-gradient-15" x1="58.1" y1="425" x2="93.2" y2="425" gradientTransform="translate(0 -294)" gradientUnits="userSpaceOnUse">
      <stop offset="0" stop-color="#a0a1a5"/>
      <stop offset=".5" stop-color="#f9f9f9"/>
      <stop offset="1" stop-color="#8a8c91"/>
    </linearGradient>
    <linearGradient id="linear-gradient-16" x1="177.7" y1="441.7" x2="246.2" y2="441.7" gradientTransform="translate(0 -294)" gradientUnits="userSpaceOnUse">
      <stop offset="0" stop-color="#a0a1a5"/>
      <stop offset=".5" stop-color="#f9f9f9"/>
      <stop offset="1" stop-color="#8a8c91"/>
    </linearGradient>
    <linearGradient id="linear-gradient-17" x1="117.7" y1="340.3" x2="186.5" y2="340.3" gradientTransform="translate(0 -294)" gradientUnits="userSpaceOnUse">
      <stop offset="0" stop-color="#a0a1a5"/>
      <stop offset=".5" stop-color="#f9f9f9"/>
      <stop offset="1" stop-color="#8a8c91"/>
    </linearGradient>
    <linearGradient id="linear-gradient-18" x1="81.7" y1="486.4" x2="99.3" y2="486.4" gradientTransform="translate(0 -294)" gradientUnits="userSpaceOnUse">
      <stop offset="0" stop-color="#a0a1a5"/>
      <stop offset=".5" stop-color="#f9f9f9"/>
      <stop offset="1" stop-color="#8a8c91"/>
    </linearGradient>
    <linearGradient id="linear-gradient-19" x1="86.8" y1="498.6" x2="116" y2="498.6" gradientTransform="translate(0 -294)" gradientUnits="userSpaceOnUse">
      <stop offset="0" stop-color="#a0a1a5"/>
      <stop offset=".5" stop-color="#f9f9f9"/>
      <stop offset="1" stop-color="#8a8c91"/>
    </linearGradient>
    <linearGradient id="linear-gradient-20" x1="149.1" y1="508.3" x2="155.2" y2="508.3" gradientTransform="translate(0 -294)" gradientUnits="userSpaceOnUse">
      <stop offset="0" stop-color="#a0a1a5"/>
      <stop offset=".5" stop-color="#f9f9f9"/>
      <stop offset="1" stop-color="#8a8c91"/>
    </linearGradient>
    <linearGradient id="linear-gradient-21" x1="149.1" y1="529.4" x2="155.2" y2="529.4" gradientTransform="translate(0 -294)" gradientUnits="userSpaceOnUse">
      <stop offset="0" stop-color="#a0a1a5"/>
      <stop offset=".5" stop-color="#f9f9f9"/>
      <stop offset="1" stop-color="#8a8c91"/>
    </linearGradient>
    <linearGradient id="linear-gradient-22" x1="132.5" y1="581.4" x2="172.4" y2="581.4" gradientTransform="translate(0 -294)" gradientUnits="userSpaceOnUse">
      <stop offset="0" stop-color="#a0a1a5"/>
      <stop offset=".5" stop-color="#f9f9f9"/>
      <stop offset="1" stop-color="#8a8c91"/>
    </linearGradient>
    <linearGradient id="linear-gradient-23" x1="91.7" y1="419.5" x2="212.4" y2="419.5" gradientTransform="translate(0 -294)" gradientUnits="userSpaceOnUse">
      <stop offset="0" stop-color="#a0a1a5"/>
      <stop offset=".5" stop-color="#f9f9f9"/>
      <stop offset="1" stop-color="#8a8c91"/>
    </linearGradient>
  </defs>
  <path class="cls-1" d="M268.9,122.4c-.4-3.3,1.9-6.4,5.4-6.9,3.4-.4,6.5,2,6.9,5.4.4,3.3-1.9,6.4-5.4,6.9s-6.5-2-6.9-5.4h0Z"/>
  <g>
    <g>
      <path class="cls-25" d="M30.5,213.9l27.6-20.1,5.2,7.2c5.1,7,1.8,13-2.2,15.9-6.2,4.5-12.7,2.7-16.1-2-1.2-1.6-1.7-3-2.1-4.5l-9.8,7.1-2.6-3.6h0ZM59.6,202.6l-2.1-2.8-11.4,8.3c.2,1.6.8,2.8,1.8,4.2,2.4,3.2,6.4,4,10.6,1,3.7-2.7,4.1-6.5,1.1-10.6h0Z"/>
      <path class="cls-25" d="M36.4,173.5c7.5-3.2,13.4,1.6,15.5,6.5,3.2,7.3-.9,13.4-5.8,15.6-6.2,2.6-12.8.4-15.7-6.4-2.7-6.2-.4-12.8,6.1-15.6h0ZM44.1,191.4c4.4-1.9,5.8-6,4.1-9.9-1.8-4.1-5.9-5.5-10-3.8-4.9,2.1-5.6,6.5-4,10.1,1.6,3.8,5.6,5.5,10,3.6h0Z"/>
      <path class="cls-25" d="M23,154l4.3,1.5c-1,1.5-1.5,3.4-1.3,4.7.5,2.2,3.5,4.7,7.7,3.8l11.7-2.4.9,4.4-22,4.6-.9-4.4,5.1-1.1c-4.6-1.6-6.4-3.4-6.9-5.4-.4-1.8.3-3.9,1.4-5.7h0Z"/>
      <path class="cls-25" d="M26.8,134.2l11.3-.4c.7,0,1-.3,1-.9s-.4-1.3-1.3-2.3h3.2c1.2,1.6,1.9,3,1.9,4.5s-.6,2.7-2.2,3.1c1.6,1.9,2.4,3.9,2.5,6,0,3.2-2.4,5.6-5.3,5.7-4.1.1-5.7-2.6-8.9-11.3h-1.2c-2.8.1-3.9,1.6-3.8,4.2,0,2.4,1.3,4.9,3.9,7l-4.9.2c-2.1-1.7-3.2-4.2-3.3-7.4-.2-5.1,2.7-8.3,7-8.4h0ZM40,142.2c0-1.4-.8-2.7-2-3.8l-6.6.2c1.9,5.1,3.4,7,5.5,6.9,1.8,0,3.1-1.4,3-3.3h0Z"/>
      <path class="cls-25" d="M32.2,107.6l13.4,2.2-.7,4.4-13.3-2.2c-4.6-.8-6,1.2-6.4,3.6-.3,2,.5,4.2,2.2,5.8l15.9,2.6-.7,4.4-22.2-3.7.7-4.4,2.8.5c-2-2.3-2.5-5.3-2.1-7.3.8-4.8,4.6-7,10.5-6h0Z"/>
      <path class="cls-25" d="M33.6,77.8c.9-1.8,2.2-3.3,4.1-4.6l2.2,1.1c-2.1,1.3-3.5,2.6-4.4,4.4-1.3,2.6-.7,4.5,1.2,5.5,1.8.9,3.2.5,6.8-2.5,3.2-2.6,5.7-3.7,8.5-2.3,2.8,1.4,4.4,5,2.3,9-1,2.1-2.3,3.6-4.6,5.2l-2.3-1.2c2.3-1.3,4.2-3.1,5-4.8,1.3-2.7.7-5-1.3-6-1.9-1-3.2-.4-7.2,2.8-3.2,2.6-5.5,3.4-8.2,2.1-3-1.5-4-4.9-2.1-8.7h0Z"/>
      <path class="cls-25" d="M52.8,50.6l2,1.5c-2.1,1-3.5,2.2-4.7,3.8-3.2,4.2-2,9.5,2.2,12.7,4.1,3.1,9.5,3.1,13.1-1.6,1.3-1.7,1.9-3.3,2.5-5.3l1.9,1.4c-.6,1.9-1.4,3.7-2.7,5.4-4.3,5.7-11.1,5.8-16,2.1-5.8-4.4-6.6-10.9-2.7-16,1.2-1.6,2.6-2.8,4.6-4.1h-.2Z"/>
      <path class="cls-25" d="M67.3,35.2c5-4.2,11.9-3.5,16.2,1.7,4.7,5.6,3.3,12.4-1.3,16.3-5.4,4.5-12.3,3.2-16.2-1.5-4.4-5.3-4-12.1,1.2-16.5h.1ZM80.8,51.6c4.1-3.4,4.3-8.9.8-13.1-3.7-4.4-9.1-4.9-13.2-1.5-3.8,3.2-4.4,8.7-.7,13.1,3.6,4.3,9.1,4.9,13,1.6h0Z"/>
      <path class="cls-25" d="M82.8,24.3l4.3-2.3-2.5-4.6,1.4-2.4,3.2,5.9,5.9-3.2,1,1.9-5.9,3.2,6.4,12c1.5,2.9,2.9,4.3,5.4,2.9,1.2-.6,2.3-1.8,3.2-3.1l1.1,2c-.9,1.3-2.2,2.5-3.5,3.2-3.5,1.9-5.8.7-8.2-3.8l-6.4-12-4.3,2.3-1-1.9h0Z"/>
      <path class="cls-25" d="M102.2,14.4l4.6-1.6-1.7-5,1.8-2.1,2.2,6.3,6.3-2.2.7,2-6.3,2.2,4.4,12.8c1.1,3.1,2.1,4.7,4.8,3.8,1.3-.4,2.6-1.4,3.7-2.6l.7,2.1c-1.1,1.2-2.6,2.1-3.9,2.6-3.8,1.3-5.8-.2-7.5-5.1l-4.4-12.8-4.6,1.6-.7-2h0Z"/>
      <path class="cls-25" d="M146.6,4.3l5.1,13.9,6.5-13.3,3.3.2,4.9,13.9,6.6-13.3,4.8.3-11.2,22.3h-1.4l-5.7-16.2-7.5,15.3h-1.4l-8.6-23.6,4.8.3h0l-.2.2Z"/>
      <path class="cls-25" d="M187.9,9.8l-5.7,21.8-4.3-1.1,5.7-21.8s4.3,1.1,4.3,1.1ZM190,3.3c-.4,1.4-1.8,2.3-3.2,1.9s-2.2-2-1.8-3.2,1.7-2.2,3.2-1.9c1.4.4,2.3,1.8,1.9,3.2h0Z"/>
      <path class="cls-25" d="M203.5,2.7l-11.7,32.1-4.2-1.5L199.3,1.2l4.2,1.5h0Z"/>
      <path class="cls-25" d="M215.7,8.1l-14.6,30.9-4-1.9,14.6-30.9s4,1.9,4,1.9Z"/>
      <path class="cls-25" d="M221.5,24.5l-11.5,19.3-3.8-2.3,11.5-19.3,3.8,2.3ZM225.3,18.8c-.7,1.2-2.4,1.7-3.6.9-1.3-.8-1.6-2.5-.9-3.6.7-1.1,2.3-1.7,3.6-.9,1.2.7,1.7,2.4,1,3.6h-.1Z"/>
      <path class="cls-25" d="M235.6,43.3l-7.1,8.9c-.4.5-.5,1,0,1.3.4.3,1.3.5,2.6.5l-2,2.5c-2.1-.2-3.6-.6-4.7-1.5-1.2-1-1.7-2.2-1-3.7-2.5,0-4.6-.7-6.2-2-2.5-2-2.7-5.4-.9-7.7,2.6-3.2,5.7-2.6,14.4.6l.8-1c1.8-2.2,1.3-3.9-.7-5.6-1.9-1.5-4.6-2.2-7.9-1.5l3-3.8c2.6-.5,5.3.3,7.7,2.3,4,3.2,4.6,7.4,1.9,10.8h0ZM221,48.2c1.1.9,2.6,1.1,4.2,1l4.1-5.1c-5.1-1.9-7.5-2-8.8-.3-1.1,1.4-.9,3.3.5,4.5h0Z"/>
      <path class="cls-25" d="M255.8,61.1c4.1.6,6.1,1.4,7.7,3.5,2.9,3.9,1.9,8-2.5,11.3l-11.3,8.5-2.6-3.5,11-8.3c2.8-2.1,3.3-4.6,1.5-6.9-1-1.3-2.9-2.2-5.3-2.4l-13.1,9.8-2.6-3.5,10.8-8.1c3.2-2.4,3.7-4.5,1.9-7-1.3-1.7-3.2-2.4-5.5-2.5l-13.1,9.8-2.6-3.5,18-13.5,2.6,3.5-2.4,1.8c3.3.4,5.3,1.4,6.8,3.3,1.6,2.2,2.2,4.9.7,7.7h0Z"/>
      <path class="cls-25" d="M274.2,85.4c.9,2.1,1.2,4.4.9,7l-4.1,1.7c.4-3,.5-5-.3-6.9s-1.9-2.3-2.7-2c-1,.4-1.5,1-2.1,5.7-.4,3.1-1,6.9-4.4,8.4-2.5,1-6.7.6-8.9-4.6-.9-2.3-1.2-4-1-7.7l4.4-1.9c-.7,2.6-.8,5.8,0,7.8,1,2.3,2.3,2.8,3.3,2.4,1.3-.5,1.5-1.1,2.3-6.8.5-3.4,1.4-6.1,4.2-7.3,3.1-1.3,6.6.5,8.2,4.3h.2Z"/>
    </g>
    <path class="cls-18" d="M80.3,233.6c2.7,2,3.4,5.9,1.3,8.7-2,2.7-6,3.3-8.7,1.3s-3.4-5.9-1.3-8.7,6-3.3,8.7-1.3Z"/>
    <path class="cls-19" d="M116.8,234.1c3.8,1.4,7.6,2.5,11.6,3.5v-5.4c-3.3-.8-6.6-1.8-9.8-3l-1.8,4.9h0Z"/>
    <path class="cls-17" d="M87.5,57c-23.4,18.9-38.4,47.9-38.4,80.2s7.5,44.2,20.3,61.4l4.2-3.1c-12.1-16.3-19.3-36.5-19.3-58.3s12.8-55.4,33.2-73.4v-6.9h0Z"/>
    <path class="cls-23" d="M206.4,49.6c-15.8-9.8-34.3-15.5-54.2-15.5s-38.5,5.7-54.3,15.5h10.7c13.2-6.6,28-10.3,43.7-10.3s30.4,3.7,43.5,10.2h10.7,0Z"/>
    <path class="cls-24" d="M216.7,63.7c20.4,17.9,33.3,44.2,33.3,73.5,0,42.1-26.8,78.2-64.2,91.9,0,0,1.7.7,4.8,1.2,2.8.4,5,.4,5,.4,35.2-16.4,59.6-52.1,59.6-93.5s-15.1-61.4-38.6-80.3v6.8h0Z"/>
    <path class="cls-22" d="M87.7,137.2c0,14.4,4.7,27.6,12.7,38.4l-4.1,3.1c-8.6-11.6-13.7-25.9-13.7-41.4s1.8-18,5.1-26.1c0,0,0,26.1,0,26.1h0Z"/>
    <path class="cls-20" d="M216.6,137.2c0,25.6-15,47.7-36.7,58.1,0,0-1.3,1.5-2.1,6.6,25.7-10.2,43.9-35.4,43.9-64.7s-1.8-18.2-5.1-26.3v26.3h0Z"/>
    <path class="cls-21" d="M177.6,234.6c1.4.5,3.5.9,6.2.7l7.1-2.6c-5.4.3-10.3-1.9-10.3-1.9l-3-1.9v5.6h0Z"/>
    <path class="cls-5" d="M172.4,206.2s0-5.8,2.2-8.6c0,0-2.1,1-5.7,1.8,0,0-1.7,2-1.7,8.2v41.8c2.7-.3,5.2-.7,5.2-.7v-42.6h0Z"/>
    <path class="cls-2" d="M137.8,249.4c-2.8-.4-5.2-.9-5.2-.9v-41.6s0,7.3,0,0,1.2-7.8,1.2-7.8c1.8.6,3.3.9,5.2,1.3,0,0-1.2.5-1.2,7.4v41.6h0Z"/>
    <path class="cls-3" d="M97,190.2l-4.8-4.8,10-8.8s9.7,13,26.3,19.6l-17.2,36.7s-22.4-8.9-39.6-29.7l11.1-9.7,4.8,4.8-6.1,5.4c12.2,12.9,26.8,20,26.8,20l11.2-24.3c-11.2-6-18-13.4-18-13.4l-4.6,4.1h0Z"/>
    <path class="cls-4" d="M162.4,249.9s-2.7.4-9.9.4-10.8-.4-10.8-.4v-41s-.2-7.6,2.1-7.4c2.7.3,5.5.5,8.2.5,4,0,8-.4,11.8-1.1,0,0-1.5.9-1.5,9.3v39.6h0ZM158.4,214.3c0-3.4-2.8-6.2-6.2-6.2s-6.2,2.8-6.2,6.2,2.8,6.2,6.2,6.2,6.2-2.8,6.2-6.2ZM158.4,235.4c0-3.4-2.8-6.2-6.2-6.2s-6.2,2.8-6.2,6.2,2.8,6.2,6.2,6.2,6.2-2.8,6.2-6.2Z"/>
    <path class="cls-13" d="M128.3,224.6c-.2-.1-.3-.2-.5-.3-2.8-2-3.5-5.8-1.6-8.7.6-.8,1.3-1.4,2.1-1.9h0v-4.8l-1.9-1.2-6.5,17.9c2.8,1,5.6,1.9,8.4,2.6v-3.7h0Z"/>
    <path class="cls-9" d="M87.6,68.8c-18.2,17.2-29.5,41.5-29.5,68.4s6.9,40.4,18.6,56l3.5-2.6h0c-2.6-2.8-2.5-6.6,0-9,2.4-2.4,6.3-2.4,8.8,0l1.5,1.5,3-2.2c-9.1-12.2-14.5-27.4-14.5-43.7s3.2-24.7,9-35.1v-33.2h-.3Z"/>
    <path class="cls-7" d="M216.6,102.1c5.7,10.4,8.9,22.4,8.9,35.1,0,31.5-20,58.5-47.9,68.9v18l3.9,2.5c37.5-12.4,64.6-47.8,64.6-89.4s-11.4-51.3-29.6-68.4v33.3h.1Z"/>
    <path class="cls-6" d="M186.5,49.6c-10.6-4.2-22.2-6.5-34.4-6.5s-23.8,2.3-34.5,6.5h68.9Z"/>
    <path class="cls-12" d="M96.7,201.2c-.7,0-1.3-.2-1.8-.8l-12.5-12.5c-1-1-1-2.6,0-3.6s2.6-1,3.6,0l12.5,12.5c1,1,1,2.6,0,3.6s-1.2.8-1.8.8h0Z"/>
    <path class="cls-8" d="M116,201.2c-5.4-3.1-10.4-6.8-14.9-11.1l-2.5,2.6c2.6.8,4.5,3.1,4.5,6s-2.8,6.2-6.2,6.2-5.1-1.8-5.9-4.3l-4.2,4.3c5.7,5.5,12.1,10.3,19.1,14.2l2.5-4.5c-1.5-2.1-1.6-5,0-7.2,1.3-1.9,3.5-2.8,5.6-2.7l2.1-3.6h0Z"/>
    <path class="cls-15" d="M155.2,214.3c0-1.7-1.4-3.1-3.1-3.1s-3.1,1.4-3.1,3.1,1.4,3.1,3.1,3.1,3.1-1.4,3.1-3.1Z"/>
    <path class="cls-11" d="M155.2,235.4c0-1.7-1.4-3.1-3.1-3.1s-3.1,1.4-3.1,3.1,1.4,3.1,3.1,3.1,3.1-1.4,3.1-3.1Z"/>
    <path class="cls-14" d="M132.6,280.1c0,11,8.9,19.9,19.9,19.9s19.9-8.9,19.9-19.9v-5.3s-8.5,1.4-19.7,1.4-20.2-1.4-20.2-1.4v5.3h.1Z"/>
    <path class="cls-10" d="M91.8,136.9c0,33.3,27,60.3,60.3,60.3s60.3-27,60.3-60.3V53.9h-120.7v83.1h0,0Z"/>
    <g>
      <path class="cls-16" d="M135.4,66.4c-.2.9-.8,2,.1,2.3.8.3,1.3-1,1.1-2.4-.2-1-.9-1.8-2.2-1.9,0,0,1.2,1,1,2h0Z"/>
      <path class="cls-16" d="M138.8,58.4s.4-.3,1.2-.3c-.6-.6-1.7-1.1-2.6-1,0,0,.8.4,1.4,1.2h0Z"/>
      <path class="cls-16" d="M136.8,60.8c2,4,3.5,3.3,3.5,3.3-1.8-1.6-.8-4.2-3.2-6-4.1-3.1-7.4.8-7.4.8,0,0,4.5-3.2,7.1,1.9h0Z"/>
      <path class="cls-16" d="M139,58.6c.6.8,1,2.2,1.2,3.4.1,1,.8,1.8.8,1.8.8-.3,1.4-1,1.6-1.9,0,.6-.2,1.2-.6,1.7,1.2-.2,2.3,0,3.3.5v-1.2c-.3-1.9-1.9-3.2-3.6-2.9-.4,0-.7.2-1,.4h0c-.1,0-.2,0-.2-.2s.1-.2.1-.2c.3-.2.7-.3,1.1-.4h.7c-.6-.9-1.6-1.5-2.6-1.3-.2,0-.5,0-.7.2h-.1Z"/>
      <path class="cls-16" d="M136.3,62s-2.2-2.2-4.8,0c0,0,2.9-.9,3.6.9.6,1.6,1.9,2.7,4.5,1.6,0,0-2.4.2-3.3-2.6h0Z"/>
      <path class="cls-16" d="M131.3,73.8c2.3,3.4,6.6,5.3,10.9,4.5l-.6-3c.7,0,1.4,0,2.1,0l-5.5-6.9-2.4,4.4c-.7-.2-1.5-.3-2.3,0-.9.2-1.6.6-2.2,1.2h0v-.2Z"/>
      <path class="cls-16" d="M141.5,64.5c-.6,0-1.1.3-1.5.6l-.5,1c.1,0,.2,0,.4,0,.7-.2,1.4.2,1.8.7l5.6.4c-1.1-2-3.4-3-5.8-2.5h0Z"/>
      <path class="cls-16" d="M122.2,89.7c.4.2.8.4,1.3.5,1.7.2,3.3-1,3.6-2.8.2-1.7-1-3.3-2.8-3.6-1.4-.2-2.7.6-3.2,1.7,0,0,1.6.9,1.4,3.1,0,.4-.2.7-.3,1h0Z"/>
      <path class="cls-16" d="M148.6,91.9c.4-.9.5-1.8.2-2.8-.3-1.3-1.1-2.4-2.1-3.1,0,0-.5-.3-.8,0l-1.9,2.9,4.5,3h.1Z"/>
      <path class="cls-16" d="M144,87.3l-1.7-8.4c-3.5.7-6.7,0-9.3-2.2.2,1.2.2,2.8-.8,4.4l11.1,7.3.7-1.1h0Z"/>
      <path class="cls-16" d="M148.3,67.8l-6.4-.4c.2.9-.4,1.9-1.3,2.1h-.3l2.6,3.3,1.5-1.4c.2-.2.6-.2.8,0s.2.5,0,.8l-1.6,1.4.6.8,2.3-2.1c.2-.2.6-.2.8,0s.2.5,0,.8l-2.4,2.2.6.7,4.5-4.1-1.5-4.1h-.2ZM143.5,69.2l4.5.3.7,1.8-5.2-2.2h0Z"/>
      <path class="cls-16" d="M147.1,76.6c-1.4,0-2.7.8-3.3,2l-.9.3,1.6,7.7,1-1.6c.6-2.9,1.8-5.6,3.4-7.9-.5-.3-1.2-.5-1.9-.5h0Z"/>
      <path class="cls-16" d="M133.8,85.9l5.4,2.9.6-.2-9.2-5.9c-.8.5-1.8.8-2.8.8s-.6,0-.9,0l6.4,3.1.6-.6h-.1Z"/>
      <polygon class="cls-16" points="139.3 93.1 140.6 92.8 143 88.9 141.8 88.2 138.8 89.3 133.1 86.5 130.9 88.7 131.8 92.5 139.3 93.1"/>
      <path class="cls-16" d="M125,91.1l5.8.7-.7-3.3-2.1-.5c-.4,1.4-1.6,2.5-3.1,2.9,0,.2,0,.2,0,.2h0Z"/>
      <path class="cls-16" d="M120.8,86.5c-.2.2-.3.4-.4.7l-3,1.4h3.4c.2,0,.5.3.8.4,0-.2,0-.3,0-.5,0-.8-.2-1.6-.8-2.1h0Z"/>
      <path class="cls-16" d="M140.4,68.9c.6-.2,1-.8.9-1.5s-.8-1-1.5-.8-1,.8-.9,1.5.8,1,1.5.8h0Z"/>
      <path class="cls-16" d="M145,107.8c-2.3.5-4.6-1-5-3.3-.1-.6-.1-1.2,0-1.7-.8.5-1.2,1.4-1.1,2.4l3.5,13.2h1.2c1.9-.3,3.6-1.1,5-2.3l-1.4-9.4c-.6.6-1.4,1.1-2.2,1.3h0v-.2Z"/>
      <path class="cls-16" d="M146.7,101.6c-.8-1-2.3-1.5-3.6-1-1.5.5-2.4,2.1-2.2,3.7h0c.2-.2.4-.3.6-.4.8-.3,1.6.2,1.9.9.2.7,0,1.5-.7,1.8.8.4,1.6.4,2.5.2,1.4-.5,2.3-1.9,2.2-3.4l2.3-1.8h-3Z"/>
      <polygon class="cls-16" points="178.6 115.1 178.2 121.4 181.4 119.8 181.1 124.1 185.1 120.2 185.2 117.6 181.7 115.4 178.6 115.1"/>
      <path class="cls-16" d="M145,94.9c-1.4.3-2.7,0-3.8-.8,0,0-.3-.2-.3-.6l-1.3.3-6.5-.4-3.4,12.2,7.7-.2c-.5-3.1,1.7-6,4.8-6.4,1.5-.2,3,.2,4.1,1v-.8c1.2.6,2.4,1.4,3.3,2.5h.2-.1c1.2,1.5,2.1,3.2,2.4,5.2.5,3.6-.9,6.9-3.4,9.1l1.7,11.7c.5,0,1,0,1.5-.2,8.5-1.2,14.7-8.5,14.9-16.8l2.8,2.6,3.7-3.3-25.7-16.4c-.7.7-1.5,1.2-2.5,1.3h0Z"/>
      <path class="cls-16" d="M151.6,132.4c.2,1.1.7,2,1.5,2.6l6.8-5.9-8,1.2c-.2.6-.3,1.4-.2,2.1h-.1Z"/>
      <polygon class="cls-16" points="174.4 109 173.3 110 181.7 115.4 181.8 113.8 174.4 109"/>
      <polygon class="cls-16" points="185.3 116.2 185.2 117.6 204.1 129.6 204.5 128.9 185.3 116.2"/>
      <path class="cls-16" d="M181.8,113.8l3.5,2.3,1.1-16,1.7-1.5.3-4.9-1.5.2c.4-1.7.5-3.9.4-5.8l-14.5,13.2s-1,.9-2.5,1.2c-2.1.3-3.7-.5-4.7-2.2l-1.4-2.3,7.1-7.3c-.3-.7-.5-1.7-.7-2.5-.5-3.3.4-5.9,2.4-8.3,0,0,.4-.6.7-.2.4.4,0,.8,0,.8-1.7,2.1-2.5,4.9-2.1,7.8.1.9.4,1.8.8,2.6l-7,7.2,1,1.7c.7,1.3,2.2,2.2,3.8,1.9.6,0,1.2-.3,1.6-.7l20.6-18.7c-1.4-.4-2.9-.6-4.4-.3-.7,0-1.4.3-2,.5-3.3-9.1-12.5-15-22.6-13.6-7.2,1-15,6.2-17.2,15.9h0c1.6.8,2.8,2.2,3.2,4.1.2,1.2.1,2.4-.3,3.5l25.1,16.6,8.1-7.1-.8,11.9h.3ZM179.6,87.3c.5,0,1,.3,1.1.8s-.3,1-.8,1.1-1-.3-1.1-.8.3-1,.8-1.1Z"/>
      <path class="cls-16" d="M145.4,136.7l-1.2-2.5-.5,2.8-2.8.4,2.5,1.3-.5,2.8,2-2,2.5,1.3-1.2-2.5,1.3-1.2c.3,1.3.6,2.4.6,2.4l1.9-1.6v-1c-.3-1.8-1.7-3.2-3.5-3.4,0,0,.4,1.6.8,3.1l-1.9.3h0v-.2Z"/>
      <path class="cls-16" d="M103.3,129.7s-.3-.8,0-2.2c-1.2.8-2.3,2.7-2.3,4.2,0,0,.9-1.3,2.4-2h0Z"/>
      <path class="cls-16" d="M122.8,77.9v1l-2.2,5.7c.6-.9,1.5-1.5,2.6-1.8.8-.2,1.6,0,2.3.2,0,0-.2-.2-.2-.3s.2-.3.3-.3,0,0,0,0c.6.2,1.2.3,1.8.3,2.7,0,4.8-2.2,4.8-4.8s-2.2-4.8-4.8-4.8-3.2.9-4.1,2.2l-11.2-7.4-1.5,2.3,11.9,7.6h0c0,0,0,0,0,0h.2Z"/>
      <path class="cls-16" d="M120.1,71.2c2.5.2,2.6-1.4,2.6-1.4-.8.2-1.2-.4-.7-.9.6-.7.7-1.8.7-1.8,0,0-.3.9-1.6.4-1.5-.5-1.8.8-1.8.8-1.6-.8-1.5-2.6-1.2-3.2.4-.7,1.2-.8,1.2-.8,0,0-.7.7-.2,1.8.4.9,1.9,1.2,2.7-.2.9-1.7-1.9-5-4.5-2.2-2.3,2.5.2,7.3,2.9,7.5h0Z"/>
      <path class="cls-16" d="M107.3,133.7c7-1.8,6.3-4.4,6.3-4.4-3.8,2.2-6.6-1.2-10.5,1.6-6.8,4.9-2.8,12.4-2.8,12.4,0,0-1.8-7.4,6.9-9.6h0Z"/>
      <path class="cls-16" d="M117.4,153.9s-.5-3.7-2.9-5.2c-1.2,1.2-2.8,2-4.5,2.2h0c-.2,0-.4-.2-.4-.5s.2-.4.4-.4c3.9-.6,6.8-4.2,6.4-8.2-.2-2.2-1.3-4-2.9-5.3,0,0-.8,1-2.8,1.5,0,0-.5.1-.6-.2,0-.3.4-.4.4-.4,2.3-.6,3.9-2.3,3.5-6.7,0,0-1.6,4.1-5.5,4.3h-.4c-4.2.4-7.2,4.1-6.8,8.3,0,1.2.5,2.3,1.1,3.2.5.8,1.2,1.8.9,3.8,0,0,0-2.4-1.8-2.7-.5,1.1-.7,2.2-.6,3.5.3,3,2.5,5.4,5.3,6.2,0,0,5.7,1.4,4.6,5.2-.8,2.6.8,3.5.8,3.5-2.1,2.3-4.7,1.4-5.6.4s-.7-2.4-.7-2.4c0,0,.7,1.4,2.8,1.2,1.5-.2,2.8-2.6,1-4.6-2.2-2.3-8.6.9-5.5,6.6,2.5,4.6,9.9,3.4,12.4-.2.7-1.1,1.1-2.5.9-3.8-.2-2-1.3-3.7-3-4.6,0,0,0-.1,0-.2,0-.2,0-.3.3-.3h.2c1.8,1,3.1,2.8,3.3,5v1c.6-1.6,1.7-5.8-1.3-10.1h1.5-.3Z"/>
      <path class="cls-16" d="M145.2,132.4h-.1c-.3,0-.4.3-.4.5,0,.3.3.4.5.4h1.2l-.3-1h-1,0Z"/>
      <path class="cls-16" d="M150.7,132.5c-.1-.7,0-1.4.1-2.1l-.2-1.2c-1.8.1-3.6,0-5.3-.4l.9,3.5c2.3.1,4.3,1.9,4.7,4.3v.3l1.5-1.3c-.9-.8-1.5-1.9-1.7-3.1h0Z"/>
      <path class="cls-16" d="M123.2,63.2c1.3-.6.3,1,.6,2,.3,1.2,1.6.9,1.6.9,0,0,0,1.3-1.8,1,0,0,.2,2.3,2,1.8,0,0-1.5.4-1.9,1.7-.4,1.3-1.5,1.3-2.1,1.3,0,0,3.3.8,5.7-2.4l.3.9s1.8-.6,2.2-2.3c-.8-.5-1.6-1.5-2-2.5h0c0-.3,0-.4.2-.5.2,0,.3,0,.4.2.9,1.9,2.8,3.1,4.8,2.7.5,0,1-.3,1.4-.6,0,0-.2-.5-.9-.9,0,0,.4-.7,1-1,0,0-.2-.9-1.3-1.1,0,0,0-1.4-.8-1.8-.8-.4-1.7.3-1.6,1,0,0,1.3.2,1,1.3-.3.9-1.8.5-1.8-.9s1-2.9,3.4-3.3c1.3-.2,2.4.7,2.4.7,0,0-1.2-2.6-3.9-2.4-2.6.2-2.9,3.7-5,2.5,0,0,1.3-.3,1.1-1.5,0,0-2.2-.8-3.3,1.6,0,0-2.2-1.1-3,1.4,0,0,.3.9,1.4.4h0v-.2Z"/>
      <path class="cls-16" d="M142.3,171.3c-.9-2.4-1.4-4.2-1.8-6.8-.2-1.4-.3-2.8-.3-4.1l-10-12.1,10.2-9.6c-.8-.9-1.4-2-1.6-3.2-.5-3.2,1.8-6.2,4.9-6.7h1.6l-2.8-10.5c-4.5,0-8.6-2.8-9.9-7.1l1.8-1.3-1-1.3c-.3.3-.7.6-1.2.6-.9,0-1.7-.3-2.1-1h0c-.4-.7-1.3-1.2-2.2-1.1-1.2.2-2,1.2-1.8,2.4,0,.2,0,.5.2.7h0l2.5,3.8c-1.2-.2-2.4-.2-3.6,0-4.1.6-7.5,3.1-9.4,6.4-.6-.3-1.1-.4-1.8-.4-3.1-.3-5.8,2-6,5,0,.7,0,1.3.2,1.9h0c0,.3-.2.4-.4.4-.3,0-.3-.3-.3-.3-.2-.7-.2-1.3-.2-2.1s.2-1.2.2-1.2c-1.7.6-2.9,2-3.1,3.9v1.3c1.6-.7,3.8-.8,5.9-.6,1.8.2,3.1-.7,3.1-.7,0-1.5-1.1-3-2.4-3.8,1.5.3,2.3,1.2,2.9,2,0,.9,0,1.9,0,2.9.7,4.7,3.8,8.5,7.9,10.2-1.7,3-3.8,5.7-6.3,8l17.3,20.9-.5,3.4,2,5-.9,1.1.7,2.5,7.9.2-1.6-3.1c-1.4-1.9-2.9-2.5-3.5-4.9l5.2,2.8v-3.7h0v.2ZM123.9,147.4l-.6-.9,1.9-1.7-1.4,2.6h0ZM137.2,168.9l-9.3-15.3,8.8,7.8-.4,2.4,1.5,4.5-.6.6h0Z"/>
    </g>
    <g>
      <g id="text968">
        <g class="cls-26">
          <g class="cls-26">
            <g class="cls-26">
              <path class="cls-16" d="M153.3,171.8h2.9v.2h-.2c-.1,0-.3,0-.5.1-.2,0-.4.2-.6.4-.2.2-.4.5-.6.9l-2,3.2v2.1c0,.5,0,.8.2,1,.2.2.4.3.7.3h.3v.2h-3.6v-.2h.3c.4,0,.6-.1.8-.3,0-.1.1-.4.1-.9v-2l-2.3-3.5c-.3-.4-.5-.7-.6-.8s-.3-.2-.6-.4c0,0-.2,0-.4,0v-.2h3.6v.2h-.2c-.2,0-.4,0-.5.1-.2,0-.2.2-.2.4s.1.4.4.8l1.8,2.7,1.6-2.6c.2-.4.4-.7.4-.9s0-.2,0-.3c0,0-.1-.2-.3-.2-.1,0-.3,0-.5,0v-.2Z"/>
              <path class="cls-16" d="M159,172.3v3.3h1.8c.5,0,.8,0,1-.2.2-.2.3-.5.4-1h.2v2.9h-.2c0-.4-.1-.7-.2-.8,0-.1-.2-.3-.4-.3-.2,0-.4-.1-.8-.1h-1.8v2.8c0,.4,0,.6,0,.7,0,0,0,.1.2.2,0,0,.2,0,.5,0h1.4c.5,0,.8,0,1,0,.2,0,.4-.2.6-.4.3-.3.5-.6.8-1.2h.2l-.7,2.1h-6.5v-.2h.3c.2,0,.4,0,.6-.1.1,0,.2-.2.3-.3,0-.1,0-.4,0-.8v-5.5c0-.5,0-.9-.2-1-.1-.2-.4-.2-.7-.2h-.3v-.2h6.5v1.8c0,0-.1,0-.1,0,0-.4-.2-.7-.3-.9s-.3-.3-.5-.4c-.2,0-.5,0-.9,0h-2.3Z"/>
              <path class="cls-16" d="M169.9,177.4h-3.3l-.6,1.3c-.1.3-.2.6-.2.7s0,.2.2.3c.1,0,.4.2.8.2v.2h-2.6v-.2c.4,0,.6-.1.7-.2.2-.2.4-.6.7-1.2l3-6.9h.2l2.9,7c.2.6.5.9.6,1.1.2.2.5.3.8.3v.2h-3.3v-.2c.3,0,.6,0,.7-.2.1,0,.2-.2.2-.3s0-.5-.2-.9l-.5-1.2ZM169.8,176.9l-1.4-3.4-1.5,3.4h2.9Z"/>
              <path class="cls-16" d="M181.9,180.2h-2.2l-2.8-3.9c-.2,0-.4,0-.5,0s-.1,0-.2,0c0,0-.1,0-.2,0v2.4c0,.5,0,.9.2,1,.2.2.4.3.7.3h.3v.2h-3.6v-.2h.3c.4,0,.6-.1.8-.3,0-.1.1-.4.1-.9v-5.4c0-.5,0-.9-.2-1-.2-.2-.4-.3-.7-.3h-.3v-.2h3.1c.9,0,1.6,0,2,.2.4.1.8.4,1.1.7.3.3.4.8.4,1.2s-.2,1-.5,1.3c-.3.4-.9.6-1.6.8l1.7,2.4c.4.6.7.9,1,1.1.3.2.7.3,1.1.3v.2ZM175.9,175.9c0,0,.1,0,.2,0,0,0,.1,0,.1,0,.8,0,1.4-.2,1.8-.5s.6-.8.6-1.3-.2-1-.5-1.3-.8-.5-1.3-.5-.6,0-1,.1v3.5Z"/>
              <path class="cls-16" d="M187.6,171.6v2.9h-.2c0-.6-.2-1-.4-1.3-.2-.3-.5-.6-.8-.8-.4-.2-.7-.3-1.1-.3s-.8.1-1.1.4-.4.6-.4.9,0,.5.3.7c.3.3.9.7,1.8,1.2.8.4,1.3.7,1.6,1,.3.2.5.5.7.8.2.3.2.6.2,1,0,.6-.2,1.2-.7,1.6s-1.1.7-1.9.7-.5,0-.7,0c-.1,0-.4,0-.8-.2-.4-.1-.7-.2-.8-.2s-.2,0-.2,0c0,0-.1.2-.1.4h-.2v-2.9h.2c.1.6.3,1.1.4,1.4.2.3.5.5.8.7.4.2.8.3,1.2.3s.9-.1,1.2-.4c.3-.3.5-.6.5-1s0-.4-.2-.6c-.1-.2-.3-.4-.5-.6-.2-.1-.6-.4-1.3-.8-.7-.4-1.2-.7-1.5-1-.3-.2-.5-.5-.7-.8-.2-.3-.2-.6-.2-1,0-.6.2-1.1.7-1.6.5-.4,1.1-.7,1.8-.7s.9.1,1.4.3c.2.1.4.2.5.2s.2,0,.3,0c0,0,.1-.2.2-.4h.2Z"/>
            </g>
          </g>
        </g>
      </g>
      <g id="text969">
        <g class="cls-26">
          <g class="cls-26">
            <g class="cls-26">
              <path class="cls-16" d="M158.8,167.8c-.6-.1-1.3-.3-2.2-.6-1-.3-1.8-.5-2.5-.7-.7-.1-1.3-.2-2-.2-1.5,0-3,.4-4.5,1.2h-.2c-.2-.7-.2-1.3-.2-1.9,0-1.1.3-2.3.9-3.4s1.3-2.1,2.2-3.1c.8-.9,2-2.1,3.5-3.6,1.6-1.5,2.8-2.8,3.8-3.9,1-1.1,1.8-2.3,2.4-3.6.7-1.3,1-2.7,1-4.1s-.3-2.8-.8-3.7c-.5-.9-1.3-1.4-2.3-1.4s-1.7.3-2.3,1c-.6.6-.9,1.4-.9,2.4s.2,1.8.6,2.5c.4.7.8,1.2,1.4,1.6v.2c-.5.4-1,.8-1.5,1-.5.2-1.1.4-1.6.4-.8,0-1.6-.4-2.1-1.1-.6-.8-.8-1.8-.8-3.1s.3-2.3,1-3.3c.7-1.1,1.7-1.9,3-2.6,1.3-.7,2.9-1,4.6-1s4.3.7,5.8,2c1.5,1.3,2.2,3.2,2.2,5.5s-.4,2.8-1.1,4.1c-.8,1.3-1.7,2.4-2.8,3.4-1.1,1-2.6,2.2-4.4,3.6-1.8,1.4-3.2,2.5-4.3,3.5-1.1,1-1.9,2-2.5,3.1.8-.2,1.6-.3,2.5-.3s1.3,0,2,.2c.7.1,1.4.2,2,.4.1,0,.5.1,1.1.2s1.2.2,1.7.2c.7,0,1.4-.2,2.1-.5.6-.3,1.3-.9,2-1.6h.1c.4,1.1.5,1.9.5,2.6s-.3,1.8-.8,2.6c-.5.8-1.2,1.3-2,1.8-.8.4-1.8.6-2.7.6s-1.1,0-1.7-.2Z"/>
            </g>
          </g>
          <g class="cls-26">
            <g class="cls-26">
              <path class="cls-16" d="M170.2,166.1c-1.3-1-1.9-2.5-1.9-4.4s.5-3.1,1.5-4.2c1-1.1,2.3-1.6,3.9-1.6s2.6.7,2.9,2.1c-1.1.1-2,.5-2.7,1.2-.7.7-1,1.5-1,2.6s.3,1.7.9,2.3c.6.5,1.3.8,2.3.8,1.6,0,2.9-.7,3.9-2.1,1-1.4,1.5-3.2,1.5-5.5s-.4-3.3-1.2-4.4c-.8-1-1.9-1.5-3.3-1.5s-3.2.6-5.4,1.8l-.5-.4,3.2-15.5c3.1.4,5.4.5,6.9.5,2.5,0,4.9-.4,7.1-1.1,0,.6,0,1.1,0,1.4,0,1.4-.4,2.6-1.1,3.4-.8.9-1.9,1.3-3.6,1.3s-1.4,0-2.3-.2-1.7-.3-2.5-.5c-.7-.1-1.4-.3-2.1-.4l-1.6,7.4c1.8-.8,3.5-1.3,5.1-1.3s4,.8,5.3,2.3c1.3,1.5,1.9,3.6,1.9,6.2s-.5,4.2-1.5,5.9c-1,1.7-2.3,3-4.1,4-1.8.9-3.8,1.4-6.1,1.4s-4.3-.5-5.5-1.6Z"/>
            </g>
          </g>
        </g>
      </g>
    </g>
    <g>
      <path class="cls-25" d="M119.1,263.2c0,.1,0,.2-.2.2s0,.1-.2.1h-.9c0-.2-.2-.2-.3-.3s-.2-.1-.2-.2v-.9l-.3-6v-2.6h0l-.6,1.2-.6,1.2-2.9,5.6h0q0,.1-.2.1h-.5c0,0-.2,0-.3-.1,0,0,0,0-.2-.1h0v-.2l4.6-8.8c0-.2.2-.3.4-.4h.4l.6.2c0,0,.2,0,.3.1s.2.1.2.2v.8l.3,6v2.2h0c.2-.4.4-.8.6-1.3.2-.4.4-.9.6-1.3l2.7-5.2h.6c0,0,.2,0,.3.1,0,0,0,0,.2.1s0,0,0,.1h0c0,.1-4.6,8.9-4.6,8.9h0l.2.3Z"/>
      <path class="cls-25" d="M129.8,260.9c0,.4-.2.8-.4,1.2-.2.4-.4.8-.6,1.1s-.5.7-.8,1-.6.5-1,.7-.8.3-1.2.4-.9,0-1.4,0c-.5-.1-.9-.3-1.3-.5s-.6-.4-.8-.7-.3-.6-.3-1v-1.2c0-.4.2-.8.4-1.2s.4-.8.6-1.1c.2-.3.5-.7.8-1s.6-.5,1-.7.8-.3,1.2-.4.9,0,1.4,0c.5.1.9.3,1.3.5s.6.5.8.7c.2.3.3.6.3,1v1.2h0ZM128.4,260.7v-.7c0-.2,0-.4-.2-.6-.1-.2-.2-.3-.4-.5-.2-.1-.4-.2-.7-.3h-.9c-.3,0-.6.2-.8.3-.2.1-.5.3-.7.6s-.4.5-.6.8-.3.6-.4.9-.2.6-.3.9v.7c0,.2,0,.4.2.6s.2.3.4.5c.2.1.4.2.7.3h.9c.3,0,.6-.2.8-.3.2-.1.5-.3.7-.6.2-.2.4-.5.6-.8s.3-.6.4-.9c0-.3.2-.6.3-.9h0Z"/>
      <path class="cls-25" d="M136.4,259.9v.2c0,.1,0,.2-.1.2s0,.1-.1.2-.1,0-.1,0c0,0-.1,0-.2-.1s-.2-.1-.3-.2-.3-.2-.4-.2-.4-.1-.6-.2h-.6c-.2,0-.4.1-.5.2s-.3.2-.3.4-.1.3-.2.5c0,.2,0,.4.1.6s.3.3.5.5.4.3.6.4.4.3.6.5.3.4.4.7c.1.2.1.5,0,.9,0,.4-.2.7-.4,1s-.4.5-.8.7-.7.3-1.1.4-.9,0-1.3,0-.5-.1-.7-.2-.4-.1-.6-.2-.3-.2-.4-.3-.2-.2-.3-.2h0v-.3h0v-.5h0q0-.1.1-.2h.1s.1,0,.2.1.2.2.3.3.3.2.5.3.5.2.8.2h.8c.2,0,.4-.1.6-.2s.3-.2.4-.4.1-.3.2-.5c0-.2,0-.4-.1-.6s-.3-.3-.5-.5-.4-.3-.6-.5c-.2-.1-.4-.3-.6-.5s-.3-.4-.4-.6-.1-.5,0-.9c0-.4.2-.7.4-1s.4-.5.7-.7.6-.3,1-.4.8,0,1.2,0,.4,0,.6.1c.2,0,.4.1.5.2s.3.1.4.2c.1,0,.2.1.2.2v.3h0Z"/>
      <path class="cls-25" d="M145.8,260.7v.5s0,.1-.1.2h-.1q-.1,0-.2-.1c0-.1-.2-.1-.3-.2-.1,0-.3-.1-.5-.2-.2,0-.4-.1-.6-.1h-.6c-.2,0-.4.1-.5.2s-.2.2-.3.4-.1.3-.1.5,0,.4.2.6c.1.1.3.3.5.4s.4.3.7.4.5.3.7.5.4.4.5.6.2.5.1.9c0,.4-.1.7-.3,1s-.4.6-.7.8c-.3.2-.6.4-1.1.5s-.9.1-1.3.1-.5,0-.7-.1c-.2,0-.4-.1-.6-.2-.2,0-.3-.1-.4-.2-.1,0-.2-.2-.3-.2h0v-.3h0v-.7h0c0-.2,0-.1.1-.1,0,0,.1,0,.2.1s.2.2.3.3c.1.1.3.2.5.3.2,0,.5.1.8.2h.8c.2,0,.4-.1.6-.2.1-.1.3-.2.3-.4s.1-.3.1-.5,0-.4-.2-.6c-.1-.1-.3-.3-.5-.4s-.4-.3-.7-.4-.5-.3-.7-.5-.4-.4-.5-.6-.2-.5-.1-.9c0-.4.1-.7.3-1s.4-.5.7-.8c.3-.2.6-.4,1-.5s.8-.1,1.2-.1.4,0,.6.1.4.1.5.2.3.1.4.2c.1,0,.2.1.2.2v.3h0v-.2Z"/>
      <path class="cls-25" d="M152.7,261.1v.6c0,0,0,.2-.1.2h-.2q0,0-.2-.1s-.2-.2-.3-.3-.3-.2-.5-.3-.5-.1-.8-.1-.7,0-.9.2c-.3.1-.5.3-.7.5s-.4.5-.5.8-.2.6-.3.9c0,.3-.1.6-.2.9v.7c0,.6.1,1,.3,1.3s.6.5,1.1.5.7,0,.9-.1c.3,0,.5-.2.6-.3.2-.1.3-.2.4-.3.1,0,.2-.1.3-.1h.1c.1,0,0,.1,0,.2v.8q0,0-.2.2l-.4.2c-.2.1-.4.2-.6.2s-.4.1-.7.2h-.8c-.9,0-1.5-.3-1.9-.7s-.6-1.1-.6-2,0-.7.1-1.1.2-.8.3-1.2.3-.8.6-1.1.5-.7.8-1,.7-.5,1.1-.7.9-.2,1.4-.2h.6c.2,0,.4,0,.6.2.2,0,.3.1.5.2.1.1.2.2.3.2s.1.1.1.2v.2h0l-.2.2Z"/>
      <path class="cls-25" d="M154.3,267.8h0c0,.2,0,.1-.1.1h-1c0-.1,1.3-7.5,1.3-7.5h0q0-.1.1-.1h1c0,0,0,0,0,0h0c0,.1-1.3,7.5-1.3,7.5h0ZM156.2,257.9c0,.1,0,.3-.1.4s-.1.2-.2.2c0,0-.2.1-.3.1h-.8c-.1,0-.2,0-.2-.1v-.6c0-.2,0-.3.1-.4,0-.1.1-.2.2-.3,0,0,.2-.1.3-.1h.8c0,0,.2,0,.2.1v.6h0Z"/>
      <path class="cls-25" d="M163.3,261.5c0,.4,0,.7-.2,1s-.4.6-.8.8c-.4.2-.8.4-1.4.6s-1.2.2-2.1.3h-.9v1.1c0,.5.2,1,.5,1.2.3.3.7.4,1.3.4s.7,0,.9-.1c.3,0,.5-.1.7-.2s.4-.1.5-.2.2,0,.3-.1h.1v.7s0,.1-.1.2c0,0-.2.1-.3.2s-.4.1-.6.2c-.2,0-.5.1-.7.2s-.5,0-.8.1h-1.3c-.4,0-.7-.2-.9-.5-.2-.2-.4-.5-.6-.8s-.2-.7-.2-1.2v-1.1c0-.4.1-.8.2-1.2.1-.4.3-.8.5-1.2s.5-.7.8-1,.7-.5,1.1-.7c.4-.2.9-.3,1.4-.3s.8,0,1.2.1c.3.1.6.2.8.4.2.2.4.4.5.6s.2.4.2.6h0ZM161.9,261.7c0-.3-.1-.5-.4-.6s-.5-.2-.9-.2-.7.1-.9.2c-.3.1-.5.3-.7.5s-.4.5-.5.8-.2.6-.3.9h.8c.6,0,1-.1,1.4-.2s.7-.2.9-.3.4-.3.5-.5c0-.2.1-.3.1-.5h0Z"/>
      <path class="cls-25" d="M175.4,265.8h0q0,.1-.1.2c-.1.1-.1,0-.2,0h-.9c0-.1.2-4.7.2-4.7v-.9c0-.3-.1-.6-.3-.8-.2-.2-.4-.3-.7-.2-.3,0-.5.2-.8.4-.3.2-.5.5-.7.8s-.4.7-.5,1.1-.2.9-.2,1.4l-.2,3.4h0c0,.2,0,.1-.1.2s-.1,0-.2,0h-.9c-.1,0,0,0,0-.1l.2-4.6v-.9c0-.3-.1-.6-.3-.8-.2-.2-.4-.2-.7-.2s-.5.2-.8.4c-.3.2-.5.5-.7.8s-.4.7-.5,1.1-.2.9-.2,1.4l-.2,3.4h0c0,.2,0,.1-.1.2h-1.1c-.1,0,0,0,0-.1l.4-7.5h0c0-.2,0-.1.1-.2s.1,0,.2,0h.8c0,0,0,0,0,0h0v1.5c0-.2,0-.4.2-.6s.4-.5.6-.7.5-.4.8-.5.6-.2.9-.3h.9c.2,0,.4.1.6.3s.3.3.4.5.2.4.2.7c0-.2.2-.4.4-.7.2-.2.4-.5.6-.7s.5-.4.7-.5c.3-.1.6-.2.9-.3h.9c.3,0,.5.2.6.3.2.1.3.4.4.6s.2.5.2.8v1.2l-.3,4.7h-.5Z"/>
      <path class="cls-25" d="M183.8,263.9h0v.2h-1v-1.5c0,.2-.2.4-.3.7s-.3.5-.5.7-.4.4-.7.6-.6.3-.9.4c-.4,0-.7.1-.9,0-.3,0-.5-.1-.7-.3-.2-.1-.4-.3-.5-.5s-.2-.5-.3-.8v-1.1l-.2-4.7h0c0-.2,0-.1.1-.2,0,0,.1,0,.2-.1h.9c0,.1.2,4.7.2,4.7v1c0,.2,0,.3.1.4,0,.1.1.2.2.3,0,0,.2.1.3.2s.3,0,.4,0c.3,0,.6-.2.8-.4.3-.2.5-.5.7-.9.2-.3.3-.7.4-1.2s.1-.9.1-1.4v-3.3q-.1,0,0-.1h.1c0-.1.1-.1.2-.2h.9c0,.1.2,7.6.2,7.6h.2Z"/>
      <path class="cls-25" d="M189.6,255.1v.7s0,.1-.1.1h-1.1c-.2,0-.4,0-.6,0-.2,0-.4.2-.6.3s-.3.2-.4.4-.1.3-.2.5v.5c0,.2.2.4.4.5s.4.2.6.2.5,0,.8.1.5.1.8.2.5.2.7.4.4.4.4.8c.1.4.1.7,0,1.1s-.2.7-.4,1-.5.6-.8.8c-.3.2-.8.4-1.2.6-.2,0-.5.1-.7.1h-1.1c-.1,0-.3,0-.4-.1h-.1v-.2h0v-.7h0c0-.1.1-.1.3-.1s.2,0,.4.1h.6c.2,0,.5,0,.8-.1.3,0,.5-.2.7-.3s.3-.3.4-.4c.1-.2.2-.3.2-.5v-.5c0-.2-.2-.4-.4-.5s-.4-.2-.6-.2-.5-.1-.8-.1-.5-.1-.8-.2-.5-.2-.7-.4-.4-.4-.4-.8c-.1-.3-.1-.7,0-1s.2-.6.4-.9.4-.6.7-.8.7-.4,1.1-.5c.2,0,.4-.1.6-.1h1c0,0,.2,0,.3.1l.2.2h0v-.4Z"/>
      <path class="cls-25" d="M199.7,250.8v2.3c0,.7,0,1.3-.1,2,0,.7-.2,1.4-.3,2-.1.7-.3,1.3-.5,2v.2s0,.1-.1.1-.1,0-.2.1c0,0-.2,0-.3.1-.2,0-.3.1-.4.1h-.3c0-.1-3.5-6.2-3.5-6.2h0v-.4h0q0-.1.2-.2c.2-.1.2,0,.3-.1s.2,0,.3-.1h.3c.1,0,0,0,0,.1l3,5.4h0c.1-.6.2-1.1.3-1.6,0-.5.1-1.1.2-1.6v-3.6h0v-.2s.1,0,.2-.1.2,0,.3-.1c.1,0,.2,0,.3-.1s.1,0,.2,0h.1c.1,0,0,0,0,0h0Z"/>
      <path class="cls-25" d="M201.8,247.2v.7c0,.1-.1.2-.2.2s-.2.1-.4.2c-.1,0-.3.1-.4.1h-.3c-.1,0-.1-.1-.2-.2,0-.1,0-.2-.1-.4v-.7c0-.1.1-.2.2-.2s.2-.1.4-.2c.1,0,.3-.1.4-.1h.3l.2.2c0,0,0,.2.1.4h0ZM203.8,257.1h0v.2s-.1,0-.2.1c0,0-.2.1-.3.1s-.2.1-.3.1h-.3c-.1,0,0,0,0-.1l-1.6-7.3h0v-.2s.1,0,.2-.1.2-.1.3-.1.2,0,.3-.1.1,0,.2,0h.1c.1,0,0,0,0,.1l1.6,7.3h0Z"/>
      <path class="cls-25" d="M211.4,253.5v.2s-.2.2-.4.3c-.1,0-.2,0-.2.1s-.1,0-.2,0h-.1c0-.1-.4-1.5-.4-1.5v.7c0,.3-.2.5-.3.8s-.3.5-.6.8-.5.4-.8.6c-.4.2-.8.3-1.1.3s-.6,0-.9-.2c-.3-.1-.5-.4-.7-.6s-.4-.5-.5-.8-.3-.6-.4-1-.2-.8-.3-1.2,0-.9,0-1.3,0-.9.2-1.2.3-.8.6-1.1.6-.6,1-.8.9-.3,1.2-.3.8.1,1.2.3l-.2-.7v-.2s.2-.2.4-.3c.1,0,.2,0,.2-.1h.3c.1,0,0,0,0,0l1.9,7.3h.1ZM208.8,248.7c-.4-.2-.8-.4-1.1-.4s-.7,0-1,.2c-.3.1-.5.3-.6.5s-.3.5-.3.8v.9c0,.3,0,.6.1,1,0,.3.1.6.2.9s.2.5.3.8c0,.2.2.3.3.5.1.1.2.3.4.4s.3.2.5.2.4,0,.6-.1c.3-.1.5-.3.7-.6s.4-.6.5-1,.2-.8.2-1.2,0-.9-.2-1.4l-.3-1.3h0l-.3-.2Z"/>
      <path class="cls-25" d="M223,246.9h0v.2s0,.1-.2.1-.2.1-.3.2c-.1,0-.2.1-.3.1h-.3c-.1,0,0,0,0,0l-1.5-4.4c0-.1-.1-.3-.2-.4,0-.1-.1-.3-.2-.4-.2-.3-.4-.5-.6-.6s-.5,0-.8,0c-.2.1-.4.4-.6.6-.2.3-.3.6-.4,1v1.2c0,.4.1.9.3,1.4l1.1,3.2h0v.2q0,.1-.2.1s-.2.1-.3.2c-.1,0-.2.1-.3.1h-.3c-.1,0,0,0,0,0l-1.5-4.4c0-.2-.1-.3-.2-.4s-.1-.3-.2-.4c-.2-.3-.4-.5-.6-.6-.2-.1-.5,0-.8.1-.2.1-.4.4-.6.6s-.3.6-.4,1,0,.8,0,1.2.1.9.3,1.4l1.1,3.2h0v.2s0,.1-.2.1c0,0-.2.1-.3.2s-.2.1-.3.1h-.3c-.1,0,0,0,0-.1l-2.5-7.1h0v-.2c0-.1,0,0,.1-.1s.1-.1.2-.1.2-.1.2-.1h.3c.1,0,0,0,0,0l.5,1.4v-.7c0-.3.1-.6.3-.8s.3-.5.5-.8c.2-.2.4-.5.7-.6.3-.2.5-.3.8-.3h.7c.2,0,.4.2.6.3s.3.3.5.5v-.7c0-.2.1-.6.3-.8s.3-.5.5-.8.4-.4.7-.6c.3-.2.6-.3.9-.3h.7c.2,0,.4.2.6.4s.3.4.5.6c.1.2.2.3.3.5s.1.4.2.5l1.6,4.4h0v.4Z"/>
      <path class="cls-25" d="M232.9,239.7v.3c0,.1-.2.2-.4.3h-.2c0,.1-.1.1-.2.1h-.1c0-.1-.6-1.4-.6-1.4v.7c0,.3,0,.6-.2.9,0,.3-.2.6-.4.9-.2.3-.4.5-.6.7-.4.3-.7.4-1,.5s-.6,0-.9,0c-.3-.1-.6-.2-.8-.5s-.5-.4-.7-.7c-.2-.2-.4-.5-.6-.9s-.4-.7-.5-1.1-.2-.8-.3-1.2,0-.9,0-1.3.2-.8.4-1.2.5-.7.9-1,.8-.5,1.2-.5h1.2l-.3-.7v-.3c0-.1.2-.2.4-.3h.2c0-.1.1-.1.2-.1h.1l3.3,6.8h0ZM229.4,235.5c-.4-.1-.8-.2-1.2-.2s-.7.2-1,.4c-.2.2-.4.4-.5.6-.1.2-.2.5-.2.8v.9c0,.3.2.6.3.9s.2.6.4.8.3.5.4.7c.1.1.2.3.4.4.1.1.3.2.4.3s.3.1.5,0c.2,0,.4,0,.5-.2.2-.2.4-.4.6-.7.1-.3.2-.7.3-1.1s0-.8,0-1.2-.2-.9-.4-1.3l-.6-1.2h.1Z"/>
      <path class="cls-25" d="M239.5,234.1h0v.2s0,.1-.1.2-.1.1-.2.2l-.2.2c0,0-.1,0-.2,0h-.1c-.1,0,0,0,0,0l-.7-1.2v.7c0,.3,0,.6-.1.9s-.2.6-.4.9-.4.5-.6.7c-.3.2-.6.4-.8.5-.3,0-.5.1-.7,0-.2,0-.5-.1-.7-.3s-.4-.3-.6-.5c-.1-.1-.2-.3-.3-.4s-.2-.3-.3-.5l-2.3-4.1h0v-.2q0-.1.1-.2l.2-.2c0,0,.2-.1.2-.2s.1,0,.2-.1h.1l2.3,4c0,.1.1.2.2.4s.2.2.3.4l.3.3c.1.1.2.1.3.2s.2,0,.4,0,.2-.1.4-.2c.2-.2.4-.4.5-.8.1-.3.2-.7.2-1.1s0-.8-.2-1.2-.3-.9-.5-1.3l-1.6-2.9h0v-.2s0-.1.1-.2l.2-.2c0,0,.2-.1.2-.2s.1,0,.2-.1h.1l3.7,6.5h.4Z"/>
      <path class="cls-25" d="M240,223.6h.1c0,.1,0,.2.1.2s0,.1,0,.2v.2h0v.2l-1.3,1.3,2.2,3.5c0,.1.1.2.2.3s.2.2.2.3c.2.2.4.3.6.3s.4,0,.5-.3c.1-.1.2-.2.2-.3s.1-.2.1-.2v-.2h0q0-.1.1-.1c.1,0,0,0,.1.1,0,0,.1.1.1.2,0,0,0,.1.1.2v.6s0,.2-.1.3c0,.1-.1.2-.2.3s-.2.2-.3.3c-.2.2-.4.4-.6.5s-.4.2-.6.2-.4,0-.6-.1-.4-.2-.6-.5c0,0,0-.1-.1-.2s-.1-.1-.1-.2c0,0-.1-.1-.1-.2s0-.1-.1-.2l-2.3-3.6-.7.7h-.1q-.1,0-.2-.1l-.2-.2c0,0-.1-.2-.1-.2v-.4l.7-.7-1-1.5h0v-.2s0-.1.1-.2.1-.1.2-.2l.2-.2s.1,0,.2-.1h.1c.1,0,0,0,0,0l1,1.5,1.4-1.3h.2q0,0,.2.1h.4Z"/>
      <path class="cls-25" d="M242.6,216.9c0,.1.2.2.2.3v.6c0,.1-.1.2-.2.3s-.2.2-.3.3-.2,0-.2,0c0,0-.2,0-.2-.1s-.2-.2-.3-.3c0-.1-.2-.2-.2-.4v-.6c0-.1.1-.2.2-.3l.3-.3c.1-.1.2,0,.3,0s.2,0,.2.1.2.2.2.3h0ZM248.5,225.1h0v.2q0,.1-.1.2c-.1,0-.1.2-.2.3s-.2.2-.2.2c0,0-.1,0-.2.1s0,0-.1,0,0,0,0,0l-4.4-6h0v-.2q0-.1.1-.2c.1,0,.1-.2.2-.3,0-.1.2-.2.2-.2,0,0,.1,0,.2-.1s0,0,.1,0h0l4.4,6h0Z"/>
      <path class="cls-25" d="M250.3,214.2c.1.1.3.2.4.4l.4.4,2.9,3.6h0v.2q0,.1-.1.2s-.1.2-.2.3c0,.1-.2.2-.2.2,0,0-.1.1-.2.1h-.1c-.1,0,0,0,0,0l-2.9-3.6c-.1-.1-.2-.3-.3-.4l-.3-.3c-.3-.2-.5-.3-.8-.4-.2,0-.5.1-.7.4-.2.2-.3.5-.4.8s0,.7,0,1.1.2.8.4,1.2.4.8.7,1.2l2.1,2.6h0v.2q0,.1-.1.2c-.1,0-.1.2-.2.3s-.2.2-.2.2c0,0-.1.1-.2.1h-.1c-.1,0,0,0,0,0l-4.7-5.8h0v-.4c0-.1.1-.1.2-.2s.1-.2.2-.2.1,0,.1-.1,0,0,.1,0h0l.9,1.1c0-.2-.2-.4-.2-.7v-.9c0-.3.1-.6.2-.9s.3-.6.5-.9c.2-.3.5-.5.7-.6s.5-.2.7-.2.5,0,.7.1.4.2.6.4h0v.3Z"/>
      <path class="cls-25" d="M253.5,206.9h.1c.1.2,0,.2.1.2.4.5.7,1.1,1.1,1.6.3.6.7,1.1,1,1.8.3.6.6,1.2.8,1.9s.5,1.3.6,2v.4s0,.1-.1.2-.1.2-.2.2c-.1.1-.2.2-.2.3s-.1.1-.2.2h-.2l-6.2-3.2h-.3c-.1-.2,0-.1,0-.2v-.2c0,0,.1-.2.2-.3,0-.1.1-.2.2-.3h.1q0-.1.1-.1h.1l5.4,2.9h0c-.2-.6-.4-1.1-.6-1.6s-.4-1-.7-1.4c-.3-.5-.5-.9-.9-1.4-.3-.5-.7-1-1.1-1.6h0v-.2s0-.1.1-.2.1-.2.2-.3c0-.1.1-.2.2-.2h.1q0-.1.1-.1c.1,0,0,0,0,0h0l.2-.4Z"/>
      <path class="cls-25" d="M258.6,201.8c.3.2.5.5.7.8s.2.7.2,1.1-.1.9-.4,1.5c-.2.6-.5,1.2-1,1.8l-.5.7c.1.1.3.2.4.4s.3.2.4.3c.5.3.9.4,1.3.3s.7-.4,1.1-.9c.2-.3.3-.6.4-.8.1-.3.2-.5.2-.7s.1-.4.1-.5v-.3c0-.1,0,0,.1,0h.1s.1,0,.1.1c0,0,.1.1.2.2,0,0,.1.1.1.2v.6c0,.2,0,.4-.2.6s-.2.4-.3.7-.2.5-.4.7c-.3.4-.5.7-.8,1s-.6.4-.9.5-.6,0-1,0-.7-.2-1.1-.5c-.3-.2-.6-.4-.9-.7s-.6-.6-.8-.9-.5-.7-.6-1.1-.3-.8-.4-1.2v-1.3c0-.4.3-.9.6-1.4.2-.4.5-.7.8-.9.3-.2.5-.3.8-.4h.7c.2,0,.4.1.6.2h.4ZM258,203.1c-.2-.1-.5-.2-.7,0-.3,0-.5.3-.7.6s-.3.6-.4.9v.9c0,.3.2.6.3.9s.3.5.5.8l.5-.7c.3-.5.5-.9.7-1.3s.2-.7.3-.9v-.6c0-.2-.2-.3-.4-.4h0v-.2Z"/>
      <path class="cls-25" d="M262.5,195.1c.2.1.3.2.5.3s.3.2.5.4l3.5,3.1h0v.4c0,0,0,.2-.1.3,0,.1-.1.2-.2.3,0,0,0,.1-.1.1h-.2l-3.5-3c-.1-.1-.3-.2-.4-.3s-.2-.2-.4-.2c-.3-.2-.6-.2-.8-.2s-.5.2-.6.5c-.1.2-.2.6-.2.9s0,.7.2,1.1c.1.4.3.7.6,1.1s.5.7.9,1l2.5,2.2h0v.4s0,.2-.1.3-.1.2-.2.3,0,.1-.1.1h-.2l-5.7-4.9h0v-.3s0-.2.1-.2c0-.1.1-.2.1-.2,0,0,0-.1.1-.1h.1c.1,0,0,0,0,0l1.1.9c-.1-.2-.2-.4-.3-.6s-.1-.6-.2-.9,0-.6,0-.9.2-.6.3-.9c.2-.3.4-.6.6-.7s.4-.3.7-.3h.7c.2,0,.5.1.7.3h0v-.3Z"/>
      <path class="cls-25" d="M260.8,189.2c.1,0,.2.2.3.3s.1.2.1.3v.3c0,.1,0,.2-.1.4s-.1.2-.2.3-.1.1-.2.1h-.3s-.2-.1-.3-.2c-.1-.1-.2-.2-.3-.3,0,0-.1-.2-.1-.3v-.3c0-.1,0-.2.1-.4,0-.1.1-.2.2-.3s.1-.1.2-.1h.3s.2.1.3.2h0ZM268.7,195.5h0v.4c0,0,0,.2-.1.3,0,.1-.1.2-.2.3s0,.1-.1.1h-.2l-5.9-4.6h0v-.3c0,0,0-.2.1-.3s.1-.2.2-.3c0,0,0-.1.1-.1h.2l5.9,4.6h0Z"/>
      <path class="cls-25" d="M267.3,184.6c.3.1.6.4.8.6s.3.6.4,1.1,0,.9-.1,1.5-.4,1.2-.7,2l-.4.8c.1.1.3.2.5.3s.3.1.4.2c.5.2.9.3,1.3.1s.7-.5.9-1c.1-.3.2-.6.3-.9,0-.3.1-.5.1-.7v-.8h.1s.1,0,.2.1.1,0,.2.1.1.1.2.2,0,.1.1.2v1c0,.2-.1.5-.2.7s-.2.5-.3.8c-.2.4-.4.8-.7,1.1-.2.3-.5.5-.8.6s-.6.2-1,.1c-.4,0-.7-.1-1.2-.3-.3-.1-.6-.3-1-.6s-.7-.5-1-.8-.6-.6-.8-1c-.2-.4-.4-.8-.5-1.2s-.2-.8-.1-1.3.1-.9.4-1.4c.2-.4.4-.8.6-1s.5-.4.7-.5.5-.2.7-.2.5,0,.6.1h.3ZM266.8,185.9c-.2-.1-.5-.1-.8,0s-.5.4-.6.8c-.1.3-.2.6-.2.9s0,.6.2.9c.1.3.2.5.4.8s.4.5.6.7l.3-.8c.2-.5.4-1,.5-1.4,0-.4.1-.7.1-1s0-.5-.2-.6c-.1-.1-.2-.3-.4-.3h.1Z"/>
      <path class="cls-25" d="M276.6,175.8h0v.6c0,.1,0,.2-.1.3s0,.1-.1.2,0,0-.1,0h-.1l-4-2.4c-.1,0-.3-.1-.4-.2-.1,0-.3-.1-.4-.2-.3-.1-.6-.1-.9,0s-.4.2-.5.6c0,.3-.1.6,0,.9s.2.7.4,1,.4.7.8,1c.3.3.7.6,1.1.9l2.9,1.7h0v.6c0,.1,0,.2-.1.3s0,.1-.1.2h-.2l-4-2.4c-.1,0-.3-.2-.4-.2s-.3-.1-.4-.2c-.3-.1-.6-.1-.8,0-.2,0-.4.2-.5.6,0,.3-.1.6,0,.9,0,.3.2.7.4,1s.4.7.8,1,.7.6,1.1.9l2.9,1.7h0v.6c0,.1,0,.2-.1.3s0,.1-.1.2,0,0-.1,0h-.1l-6.4-3.8h0v-.6c0-.1,0-.2.1-.3s0-.1.1-.1h.2l1.2.7c-.1-.1-.3-.3-.4-.6-.1-.2-.2-.5-.3-.8s-.1-.6-.1-.9,0-.6.1-.9c.1-.3.2-.6.4-.8.2-.2.3-.3.5-.4s.4-.1.6-.1.5,0,.7.1c-.1-.2-.3-.4-.4-.6s-.2-.5-.3-.8c0-.3-.1-.6-.1-.9s0-.6.1-.9c.1-.3.3-.6.5-.8s.4-.3.6-.4c.2,0,.5-.1.7-.1s.5,0,.8.2c.2,0,.4.1.5.2.2,0,.3.2.5.3l4,2.4h-.5Z"/>
      <path class="cls-25" d="M278.9,167.4h.1v.9h0q0,.1-.1.1l-1.3-.6c.2.1.3.3.5.6.1.2.3.5.4.8s.2.6.2.9v.9c0,.4-.2.6-.4.9s-.4.4-.5.5-.4.2-.7.2-.5,0-.8-.1c-.2,0-.4-.1-.5-.2-.2,0-.4-.1-.5-.2l-4.2-2h0v-1.1c0,0,0,0,.1,0h.1l4.2,2c.1,0,.3.1.4.2.1,0,.3.1.4.1h.8c.1,0,.2-.1.3-.2,0-.1.1-.2.2-.4v-.9c0-.3-.2-.7-.5-1-.2-.3-.5-.6-.8-.9s-.7-.6-1.2-.8l-3-1.4h0v-1.1c0,0,0,0,.1,0h.1l6.7,3.3h0v-.5Z"/>
      <path class="cls-25" d="M273.7,158.2h.2s.2,0,.2.1.1.1.2.1h0c0,.1,0,.2-.1.3s-.1.2-.2.3-.2.3-.3.4-.2.4-.2.6v.6c0,.2,0,.4.2.5s.2.3.3.4c.1.1.3.1.4.2.2,0,.4,0,.6-.1s.3-.3.5-.5c.1-.2.3-.4.5-.6s.3-.4.5-.6.4-.3.7-.4.5-.1.9,0c.4,0,.7.2,1,.4s.5.5.7.8.3.7.4,1.1v1.4c0,.2-.1.5-.2.7s-.2.4-.3.6-.2.3-.3.4-.2.2-.3.3h-.8q-.1,0-.1-.1c0-.1,0,0-.1-.1s0,0,0-.1c0,0,0-.1.1-.2s.2-.2.3-.3.2-.3.3-.5.2-.5.3-.8v-.8c0-.2,0-.4-.2-.6s-.2-.3-.4-.4-.3-.2-.5-.2-.4,0-.6.1-.3.3-.5.4-.3.4-.5.6c-.2.2-.3.4-.5.6s-.4.3-.7.4c-.2.1-.5.1-.9,0-.4,0-.7-.2-.9-.4s-.5-.4-.7-.8-.3-.6-.3-1v-1.2c0-.2,0-.4.2-.6,0-.2.1-.4.2-.5,0-.1.2-.3.2-.4s.2-.2.2-.2h.5Z"/>
    </g>
  </g>
</svg>